<!--?xml version="1.0" standalone="no"?-->              <svg id="sw-js-blob-svg" viewBox="0 0 100 100" xmlns="http://www.w3.org/2000/svg">                    <defs>                         <linearGradient id="sw-gradient" x1="0" x2="1" y1="1" y2="0">                            <stop id="stop1" stop-color="rgba(0, 64.965, 255, 1)" offset="0%"></stop>                            <stop id="stop2" stop-color="rgba(21.802, 233.157, 204.519, 1)" offset="100%"></stop>                        </linearGradient>                    </defs>                <path fill="url(#sw-gradient)" d="M14.5,-20.2C20.6,-18.5,28.8,-17.7,34.8,-13.3C40.8,-8.9,44.6,-1,42.5,5.4C40.4,11.7,32.4,16.5,26.5,22.4C20.5,28.4,16.5,35.6,10.1,40C3.7,44.4,-5.1,46,-12.1,43.1C-19.2,40.2,-24.4,32.9,-30.1,26.2C-35.9,19.4,-42.2,13.2,-42.8,6.4C-43.4,-0.4,-38.3,-7.8,-34.7,-15.9C-31.1,-24,-28.9,-32.7,-23.3,-34.7C-17.8,-36.6,-8.9,-31.6,-2.4,-27.9C4.1,-24.3,8.3,-21.8,14.5,-20.2Z" width="100%" height="100%" transform="translate(50 50)" stroke-width="0" style="transition: all 0.3s ease 0s;" stroke="url(#sw-gradient)"></path>              </svg>
